# xmcd
#
# Track frame offsets: 
#        150
#        17070
#        34433
#        54345
#        65563
#        78212
#        98788
#        113731
#        136060
#        152762
#
# Disc length: 2232 seconds
#
# Revision: 0
# Processed by: cddbd v1.4PL0 Copyright (c) Steve Scherf et al.
# Submitted via: ExactAudioCopy v0.90a11
#
DISCID=7808b60a
DTITLE=John Berry - My Heart Is Bethlehem
DYEAR=1900
DGENRE=
TTITLE0=Have Yourself A Merry Little Christmas
TTITLE1=Let It Snow
TTITLE2=We Three Kings
TTITLE3=Winter Wonderland
TTITLE4=The Lords Prayer
TTITLE5=My Heart Is Bethlehem
TTITLE6=Snowed In
TTITLE7=What Child Is This
TTITLE8=Christmas Morning
TTITLE9=The First Noel
EXTD=
EXTT0=
EXTT1=
EXTT2=
EXTT3=
EXTT4=
EXTT5=
EXTT6=
EXTT7=
EXTT8=
EXTT9=
PLAYORDER=
